<svg xmlns="http://www.w3.org/2000/svg" viewBox="0 0 64 64">
  <path d="M60.3 3.7a3 3 0 00-2.1-.8 2.9 2.9 0 00-2.1.8L25.6 34.2a7 7 0 00-8.3.3L2.4 46a1 1 0 000 1.5l14 14.1a1 1 0 00.8.3 1 1 0 00.8-.4l11.6-14.9a7 7 0 00.2-8.2L60.3 8a3 3 0 000-4.3zm-29 30.4L30 32.7l21-21 1.4 1.5zm-4.2 1.5l1.4-1.5 1.4 1.5-1.4 1.4zm-2 .9l2.5 2.4a5 5 0 011 5.3l-8.8-8.8a5 5 0 015.4 1zm-8 23L4.6 47 18 36.5l9.5 9.5zm41.8-53l-5.2 5.3-1.4-1.5 5.2-5.1a1 1 0 01.7-.3 1 1 0 01.7 1.7z"/>
  <path d="M15 54.7l8.5-9.9 1.5 1.3-8.5 10z"/>
  <path d="M8 47.5L18 39l1.3 1.6-10 8.4z"/>
  <path d="M11.5 51.1l9.2-9.2 1.4 1.4-9.2 9.2z"/>
  <path d="M43.2 48.1a5 5 0 00-4.8-5.1l-.1 2a3 3 0 11-.2 6v2a3 3 0 01-.2 6 3.1 3.1 0 01-2.9-3h-2a3 3 0 01-1 2.1 3.2 3.2 0 01-2 .9 3 3 0 01-3-3h-2a5 5 0 005 5 5 5 0 004-2 5 5 0 003.9 2 5 5 0 003.8-8.4 4.8 4.8 0 00-.6-.5 5 5 0 002.1-4z"/>
  <path d="M55 42h2v3h-2z"/>
  <path d="M52 45h3v2h-3z"/>
  <path d="M55 47h2v3h-2z"/>
  <path d="M57 45h3v2h-3z"/>
  <path d="M45 31h2v3h-2z"/>
  <path d="M42 34h3v2h-3z"/>
  <path d="M45 36h2v3h-2z"/>
  <path d="M47 34h3v2h-3z"/>
  <path d="M16 21h2v3h-2z"/>
  <path d="M13 24h3v2h-3z"/>
  <path d="M16 26h2v3h-2z"/>
  <path d="M18 24h3v2h-3z"/>
</svg>