<svg xmlns="http://www.w3.org/2000/svg" viewBox="0 0 64 64">
  <path d="M61.7 26.6L36.5 2.3a1 1 0 00-.7-.3H6v2h27.5L17 21a1 1 0 000 1.4l3.4 3.3-2.7 6.2a1 1 0 000 .4V39L4 53.3l-2 2v2.9l2-2L19.5 40a1 1 0 00.3-.7l-.2-6.9 4.6-10.7a1.3 1.3 0 011.6-.7 1.3 1.3 0 01.8 1.6l-2.6 7a1 1 0 001.7 1l2.8-2.8-.5-.4.5.4 9.4-9.7a1.5 1.5 0 012.5 1 1.5 1.5 0 01-.4 1L30.6 30l1.5 1.4 11.4-11.9a1.5 1.5 0 012.1 0 1.5 1.5 0 010 2l-11.4 12 .7.7.8.7.4-.5 9.6-10a1.5 1.5 0 011-.4 1.5 1.5 0 011.2.4 1.5 1.5 0 01.4 1 1.5 1.5 0 01-.4 1.1l-2 2v.1l-8 8.3.7.8.7.6 8-8.3a1.5 1.5 0 012 0 1.5 1.5 0 01.5 1 1.6 1.6 0 01-.4 1.1l-8 8.3-11 8.6a1 1 0 00-.1 0L19.7 60l-2 2h2.9l1.9-2 9.2-9.5 8-6.2 2.5 2.5a1 1 0 00.7.2 1 1 0 00.8-.3l18-18.7a1 1 0 000-1.4zm-18.8 18L41.3 43l1.5-1.1a.5.5 0 000-.1l8-8.3a3.5 3.5 0 000-5 3.4 3.4 0 00-1.4-.7 3.5 3.5 0 00-.2-4.9 3.4 3.4 0 00-1.5-.8 3.5 3.5 0 00-5.5-4 3.5 3.5 0 00-5.8-1.3L27.5 26l1-2.6a3.3 3.3 0 00-2.1-4.2h-.1a3.3 3.3 0 00-4 1.8l-1 2.7-2.1-2L35.8 4.4l23.8 23z"/>
  <path d="M2 24h2v2H2z"/>
  <path d="M10 24h2v2h-2z"/>
  <path d="M6 24h2v2H6z"/>
  <path d="M10 13h2v2h-2z"/>
  <path d="M2 13h2v2H2z"/>
  <path d="M6 13h2v2H6z"/>
  <path d="M14 13h2v2h-2z"/>
  <path d="M18 13h2v2h-2z"/>
  <path d="M10 35h2v2h-2z"/>
  <path d="M6 35h2v2H6z"/>
  <path d="M2 35h2v2H2z"/>
  <path d="M2 2h2v2H2z"/>
</svg>