<svg xmlns="http://www.w3.org/2000/svg" viewBox="0 0 64 64">
  <path d="M45.5 41.2c2.4-2.5-2.4-9.4-7.8-14.9s-12.4-10.2-14.9-7.8a2.2 2.2 0 00-.6 1.3l-10 23.7-5 12-3.2 3A2 2 0 005.4 62H19v-2H5.4l3.2-3.2 11.8-5a.9.9 0 00.1 0l23.7-10a2.2 2.2 0 001.3-.6zm-9.2-13.5c6.5 6.5 8.4 11.4 7.8 12a.4.4 0 01-.2.1 1 1 0 00-.3 0c-1.4 0-5.8-2.1-11.6-7.8s-7.8-10.2-7.9-11.6a1 1 0 000-.3.4.4 0 01.2-.2c.6-.6 5.5 1.3 12 7.8zM24 25.4a16.7 16.7 0 01-2.2.2l1-2.4a19.1 19.1 0 001.2 2.2zm-2.6 2.2a18.8 18.8 0 003.8-.4l1 1.4a17 17 0 01-5.8.5l.6-1.5h.4zm.7 3.6a18.9 18.9 0 005.6-1l1.1 1.4a17 17 0 01-9.8.7l.6-1.3a19 19 0 002.5.2zm.7 3.5a19 19 0 007.5-1.6l.2.3 1 .8a17 17 0 01-13.7 1l.4-1a19.1 19.1 0 004.6.5zm.7 3.5a18.9 18.9 0 009.5-2.5l1 .9A17 17 0 0116.7 38l.4-1a19 19 0 006.5 1.2zM15.5 45l-1.2-1.3 1.2-2.8zm2-4.5l1.5.5v7.6L17.5 47zm3.5 1l1.6.2v7l-1.6.7zm3.6.2H26v5.6l-1.5.6zm3.5-.4l1.5-.3v4.8l-1.5.6zm3.5-1l1.6-.8v4.8l-1.6.6zm3.6-2l.5-.4 1 .7v4.2l-1.5.6zm3.5 1.6a19.2 19.2 0 002 1.1l-2 1zm-25.3 5.8a55.4 55.4 0 004.9 4.9L9.9 54z"/>
  <path d="M44.5 29.1l16-9 1 1.8-16 9z"/>
  <path d="M33.1 18.6l8-16 1.8.8-8 16z"/>
  <path d="M39.3 23.3l21-21 1.4 1.4-21 21z"/>
  <path d="M54 33a3 3 0 103-3 3 3 0 00-3 3zm4 0a1 1 0 11-1-1 1 1 0 011 1z"/>
  <path d="M52.9 17.2l.7 2a10.8 10.8 0 011.7-.6l-.3-2a13 13 0 00-2.1.6z"/>
  <path d="M51 18.1a14 14 0 00-1.9 1.2l1.3 1.6a11.9 11.9 0 011.5-1z"/>
  <path d="M47.6 20.8a17.8 17.8 0 00-1.4 1.6l1.6 1.2a15.8 15.8 0 011.2-1.4z"/>
  <path d="M59 18.6l.3-2a13.6 13.6 0 00-2-.2h-.2v2h.3a11.5 11.5 0 011.6.2z"/>
  <path d="M41.8 14.3l1 1.7a11.1 11.1 0 001.8-1.4l-1.4-1.4a9 9 0 01-1.4 1z"/>
  <path d="M44.4 11.8l1.6 1.1a11.3 11.3 0 001-1.9l-1.7-.8a9.1 9.1 0 01-1 1.6z"/>
  <path d="M45.8 8.5l2 .4a11.1 11.1 0 00.2-2.2h-2a9 9 0 01-.2 1.8z"/>
  <path d="M45.3 3.2a9.2 9.2 0 01.5 1.7l2-.4a11.2 11.2 0 00-.6-2z"/>
  <path d="M29 15.7l1-3 2 .6-1 3z"/>
  <path d="M34 5.7l1-3 2 .6-1 3z"/>
  <path d="M50.2 6.4l2-3 1.6 1.2-2 3z"/>
  <path d="M47.4 34.2l3-2 1.2 1.6-3 2z"/>
  <path d="M57.4 27.2l3-2 1.2 1.6-3 2z"/>
  <path d="M30 11a3 3 0 113-3 3 3 0 01-3 3zm0-4a1 1 0 101 1 1 1 0 00-1-1z"/>
  <path d="M56.5 12l3-1.9 1 1.7-2.9 2z"/>
</svg>