<svg xmlns="http://www.w3.org/2000/svg" viewBox="0 0 64 64">
  <path d="M19 26a1 1 0 00-1-1h-6a1 1 0 00-.7.4l-3.7 5.2A9 9 0 006 35.8V57a1 1 0 001 1h18a1 1 0 001-1V43.4a4 4 0 00-.8-2.5l-3.5-4.4a13 13 0 01-2.7-8zm1.2 11.8l3.4 4.4a2 2 0 01.4 1.2V56H8V35.8a7 7 0 011.3-4l3.3-4.8H17v1.6a15 15 0 003.2 9.2z"/>
  <path d="M36.1 23l.5-1a2 2 0 00-.4-2.2l-4.9-5a1 1 0 01-.3-.6V8h2a2 2 0 002-2V4a2 2 0 00-2-2H9a7 7 0 00-7 7v2a2 2 0 002 2h6l2-.3V15h-1a2 2 0 00-2 2v4.7l-5.4 7.7A9 9 0 002 34.5V59a3 3 0 003 3h22a3 3 0 003-3V42.4a5 5 0 00-1-3.1l-4.1-5.2a9 9 0 01-1.9-5.5V17a2 2 0 00-2-2h-1v-3.5l5-.7v4.5a5 5 0 001.5 3.6l4.8 4.8a3 3 0 002.6.9 3 3 0 002.2-1.6zM31 4h2v2h-2zm-21 7H4V9a5 5 0 015-5h20v4.1zm13.3 24.3l4 5.2a3 3 0 01.7 1.9V59a1 1 0 01-1 1H5a1 1 0 01-1-1V34.5a7 7 0 011.3-4l5.2-7.5H21v5.6a11 11 0 002.3 6.7zM21 17v4H11v-4h2v2h2v-2h2v2h2v-2h2zm-3-2h-4v-2.6l4-.6zm16.3 7a1 1 0 01-1.6.3L28 17.5a3 3 0 01-.9-2.2v-4.8l2-.3v4a3 3 0 00.9 2.1l4.9 4.9z"/>
  <path d="M10 52h12v2H10z"/>
  <path d="M10 48h12v2H10z"/>
  <path d="M10 41.5a4.5 4.5 0 104.5-4.5 4.5 4.5 0 00-4.5 4.5zm7 0a2.5 2.5 0 11-2.5-2.5 2.5 2.5 0 012.5 2.5z"/>
  <path d="M46 2h2v2h-2z"/>
  <path d="M38 2h2v2h-2z"/>
  <path d="M50 2h2v2h-2z"/>
  <path d="M42 2h2v2h-2z"/>
  <path d="M54 2h2v2h-2z"/>
  <path d="M58 2h2v2h-2z"/>
  <path d="M43.7 11.5l.9-1.8 1.8.9-.9 1.8z"/>
  <path d="M50.9 15l.9-1.7 1.7.9-.8 1.7z"/>
  <path d="M54.4 16.8l1-1.8 1.7 1-.9 1.7z"/>
  <path d="M47.3 13.3l.9-1.8 1.8.9-1 1.8z"/>
  <path d="M40.1 9.7l1-1.8 1.7.9-.9 1.8z"/>
  <path d="M36.6 7.9l.8-1.8 1.8.9-.9 1.8z"/>
  <path d="M58 18.6l1-1.8 1.7 1-.9 1.7z"/>
  <path d="M53 32a7 7 0 00-.7-3 4 4 0 10-4.3-4v.3a7 7 0 105 6.7zm-1-9a2 2 0 11-2 2 2 2 0 012-2zm-6 14a5 5 0 115-5 5 5 0 01-5 5z"/>
  <path d="M53 49a4 4 0 104 4 4 4 0 00-4-4zm0 6a2 2 0 112-2 2 2 0 01-2 2z"/>
  <path d="M37 40a3 3 0 103 3 3 3 0 00-3-3zm0 4a1 1 0 111-1 1 1 0 01-1 1z"/>
</svg>