<svg viewBox="0 0 465 465" xmlns="http://www.w3.org/2000/svg">
  <path fill="none" d="M-1-1h467v467H-1z"/>
  <path fill="#fbd09a" d="M348.47 235.195c-.861 16.337-9.1 35.542-17.988 35.073-8.885-.468-15.059-20.432-14.199-36.772.863-16.341 8.432-22.872 17.319-22.404 8.888.468 15.728 7.76 14.868 24.103m-231.939 0c.863 16.337 9.1 35.542 17.99 35.073 8.886-.47 15.058-20.432 14.197-36.772-.861-16.341-8.43-22.872-17.317-22.404-8.89.468-15.728 7.76-14.87 24.103"/>
  <path fill="#fcd5a7" d="M232.5 412.35c28.603 0 43.68-14.933 50.687-24.26-9.572-2.34-11.462-11.45-11.462-16.69v-22.076h-78.45V371.4c0 5.24-1.89 14.35-11.46 16.69 7.008 9.327 22.086 24.26 50.686 24.26"/>
  <path fill="#870242" d="M342.903 417.76c-11.29-22.147-49.542-27.373-59.4-29.583-.11-.024-.206-.061-.316-.088-7.008 9.328-22.084 24.26-50.686 24.26-28.6 0-43.678-14.932-50.686-24.26-.11.027-.205.064-.317.088-9.857 2.21-48.11 7.436-59.399 29.583-11.03 21.635-16.336 46.8-16.336 46.8h253.474s-5.304-25.165-16.334-46.8"/>
  <path fill="#fcd5a7" d="M232.5 362.917c-28.182 0-69.545-21.401-82.385-44.228-12.841-22.826-19.618-70.616-19.618-111.397 0-63.523 45.666-102.004 102.004-102.004 56.34 0 102.005 38.481 102.005 102.004 0 40.781-6.78 88.57-19.62 111.397-12.84 22.827-54.203 44.228-82.383 44.228h-.002"/>
  <path stroke="null" fill="#362c19" d="M230.982 151.523s28.611.004 53.859-5.48c0 0 38.712-8.222 41.515 28.496v47.688s37.59-26.792 19.075-76.975c0 0-9.385-20.584 5.126-28.807 0 0-33.742-11.513-36.546-24.118 0 0 7.296-15.894 22.444-8.771 0 0-22.444-19.739-64.519-8.777 0 0-2.805-23.572 14.025-26.307 0 0-99.859-14.252-161.012 57.556 0 0-31.979 65.767 9.535 116.199l4.489-54.26s1.678-30.155 36.467-22.48c0 0 34.212 6.994 55.542 6.036"/>
  <path fill="#211c1d" d="M184.233 214.901a9.54 9.54 0 0 1-9.544 9.543c-5.268 0-9.543-4.27-9.543-9.543 0-5.272 4.275-9.544 9.543-9.544a9.542 9.542 0 0 1 9.544 9.544m117.884 0a9.54 9.54 0 0 1-9.543 9.543 9.541 9.541 0 0 1-9.541-9.543 9.542 9.542 0 0 1 19.084 0"/>
  <path fill="#edc093" d="M214.263 260.63l19.286-42.966 19.285 42.965-19.285 6.364-19.286-6.364"/>
  <path fill="#362c19" d="M290.173 319.519c-20.246 0-34.672-28.958-57.89-28.958-23.218 0-37.743 28.958-57.991 28.958-22.192 0-36.16-35.423-40.37-47.84 5.717 35.74 18.837 59.14 25.415 66.909 7.87 9.3 52.13 29.113 72.896 29.117h.004c20.772-.004 65.03-19.817 72.903-29.117 6.575-7.773 19.703-31.188 25.417-66.947-4.197 12.382-18.164 47.878-40.384 47.878"/>
  <path fill="#fcd5a7" d="M213.152 311.783s18.816-22.667 38.57 0h-38.57"/>
</svg>
